<svg width="20" height="20" viewBox="0 0 20 20" fill="none" xmlns="http://www.w3.org/2000/svg">
<g clip-path="url(#clip0_379_82088)">
<path d="M14.9 3C14.9 2.6134 14.5866 2.3 14.2 2.3C13.8134 2.3 13.5 2.6134 13.5 3H14.9ZM13.5 5.8C13.5 6.1866 13.8134 6.5 14.2 6.5C14.5866 6.5 14.9 6.1866 14.9 5.8H13.5ZM6.5 3C6.5 2.6134 6.1866 2.3 5.8 2.3C5.4134 2.3 5.1 2.6134 5.1 3H6.5ZM5.1 5.8C5.1 6.1866 5.4134 6.5 5.8 6.5C6.1866 6.5 6.5 6.1866 6.5 5.8H5.1ZM3.45561 16.5444L3.95059 16.0494L3.45561 16.5444ZM16.5444 16.5444L16.0494 16.0494L16.5444 16.5444ZM3.45561 4.85561L2.96064 4.36064L3.45561 4.85561ZM16.3 7.51111V13.8889H17.7V7.51111H16.3ZM13.8889 16.3H6.11111V17.7H13.8889V16.3ZM3.7 13.8889V7.51111H2.3V13.8889H3.7ZM6.11212 5.1C6.1175 5.1 6.12288 5.1 6.12826 5.1C6.13364 5.1 6.13901 5.1 6.14438 5.1C6.14976 5.1 6.15513 5.1 6.1605 5.1C6.16587 5.1 6.17124 5.1 6.1766 5.1C6.18197 5.1 6.18733 5.1 6.1927 5.1C6.19806 5.1 6.20342 5.1 6.20878 5.1C6.21414 5.1 6.21949 5.1 6.22485 5.1C6.2302 5.1 6.23556 5.1 6.24091 5.1C6.24626 5.1 6.25161 5.1 6.25696 5.1C6.26231 5.1 6.26765 5.1 6.273 5.1C6.27834 5.1 6.28368 5.1 6.28902 5.1C6.29437 5.1 6.2997 5.1 6.30504 5.1C6.31038 5.1 6.31571 5.1 6.32105 5.1C6.32638 5.1 6.33171 5.1 6.33704 5.1C6.34237 5.1 6.3477 5.1 6.35303 5.1C6.35835 5.1 6.36368 5.1 6.369 5.1C6.37433 5.1 6.37965 5.1 6.38497 5.1C6.39029 5.1 6.3956 5.1 6.40092 5.1C6.40624 5.1 6.41155 5.1 6.41686 5.1C6.42218 5.1 6.42749 5.1 6.4328 5.1C6.4381 5.1 6.44341 5.1 6.44872 5.1C6.45402 5.1 6.45933 5.1 6.46463 5.1C6.46993 5.1 6.47523 5.1 6.48053 5.1C6.48583 5.1 6.49113 5.1 6.49642 5.1C6.50172 5.1 6.50701 5.1 6.51231 5.1C6.5176 5.1 6.52289 5.1 6.52818 5.1C6.53347 5.1 6.53875 5.1 6.54404 5.1C6.54932 5.1 6.55461 5.1 6.55989 5.1C6.56517 5.1 6.57045 5.1 6.57573 5.1C6.58101 5.1 6.58629 5.1 6.59156 5.1C6.59684 5.1 6.60211 5.1 6.60738 5.1C6.61266 5.1 6.61793 5.1 6.6232 5.1C6.62846 5.1 6.63373 5.1 6.639 5.1C6.64426 5.1 6.64953 5.1 6.65479 5.1C6.66005 5.1 6.66531 5.1 6.67057 5.1C6.67583 5.1 6.68109 5.1 6.68634 5.1C6.6916 5.1 6.69685 5.1 6.70211 5.1C6.70736 5.1 6.71261 5.1 6.71786 5.1C6.72311 5.1 6.72836 5.1 6.73361 5.1C6.73885 5.1 6.7441 5.1 6.74934 5.1C6.75458 5.1 6.75982 5.1 6.76506 5.1C6.7703 5.1 6.77554 5.1 6.78078 5.1C6.78602 5.1 6.79125 5.1 6.79649 5.1C6.80172 5.1 6.80695 5.1 6.81218 5.1C6.81741 5.1 6.82264 5.1 6.82787 5.1C6.8331 5.1 6.83833 5.1 6.84355 5.1C6.84877 5.1 6.854 5.1 6.85922 5.1C6.86444 5.1 6.86966 5.1 6.87488 5.1C6.8801 5.1 6.88531 5.1 6.89053 5.1C6.89575 5.1 6.90096 5.1 6.90617 5.1C6.91138 5.1 6.9166 5.1 6.92181 5.1C6.92701 5.1 6.93222 5.1 6.93743 5.1C6.94264 5.1 6.94784 5.1 6.95304 5.1C6.95825 5.1 6.96345 5.1 6.96865 5.1C6.97385 5.1 6.97905 5.1 6.98425 5.1C6.98945 5.1 6.99464 5.1 6.99984 5.1C7.00503 5.1 7.01022 5.1 7.01542 5.1C7.02061 5.1 7.0258 5.1 7.03099 5.1C7.03618 5.1 7.04136 5.1 7.04655 5.1C7.05174 5.1 7.05692 5.1 7.0621 5.1C7.06729 5.1 7.07247 5.1 7.07765 5.1C7.08283 5.1 7.08801 5.1 7.09319 5.1C7.09836 5.1 7.10354 5.1 7.10871 5.1C7.11389 5.1 7.11906 5.1 7.12423 5.1C7.12941 5.1 7.13458 5.1 7.13974 5.1C7.14491 5.1 7.15008 5.1 7.15525 5.1C7.16041 5.1 7.16558 5.1 7.17074 5.1C7.17591 5.1 7.18107 5.1 7.18623 5.1C7.19139 5.1 7.19655 5.1 7.20171 5.1C7.20687 5.1 7.21202 5.1 7.21718 5.1C7.22233 5.1 7.22749 5.1 7.23264 5.1C7.23779 5.1 7.24294 5.1 7.24809 5.1C7.25324 5.1 7.25839 5.1 7.26354 5.1C7.26869 5.1 7.27383 5.1 7.27898 5.1C7.28412 5.1 7.28926 5.1 7.29441 5.1C7.29955 5.1 7.30469 5.1 7.30983 5.1C7.31497 5.1 7.32011 5.1 7.32524 5.1C7.33038 5.1 7.33551 5.1 7.34065 5.1C7.34578 5.1 7.35091 5.1 7.35605 5.1C7.36118 5.1 7.36631 5.1 7.37144 5.1C7.37657 5.1 7.38169 5.1 7.38682 5.1C7.39195 5.1 7.39707 5.1 7.4022 5.1C7.40732 5.1 7.41244 5.1 7.41756 5.1C7.42268 5.1 7.4278 5.1 7.43292 5.1C7.43804 5.1 7.44316 5.1 7.44828 5.1C7.45339 5.1 7.45851 5.1 7.46362 5.1C7.46873 5.1 7.47385 5.1 7.47896 5.1C7.48407 5.1 7.48918 5.1 7.49429 5.1C7.4994 5.1 7.50451 5.1 7.50961 5.1C7.51472 5.1 7.51982 5.1 7.52493 5.1C7.53003 5.1 7.53513 5.1 7.54024 5.1C7.54534 5.1 7.55044 5.1 7.55554 5.1C7.56064 5.1 7.56573 5.1 7.57083 5.1C7.57593 5.1 7.58102 5.1 7.58612 5.1C7.59121 5.1 7.5963 5.1 7.6014 5.1C7.60649 5.1 7.61158 5.1 7.61667 5.1C7.62176 5.1 7.62685 5.1 7.63194 5.1C7.63702 5.1 7.64211 5.1 7.64719 5.1C7.65228 5.1 7.65736 5.1 7.66245 5.1C7.66753 5.1 7.67261 5.1 7.67769 5.1C7.68277 5.1 7.68785 5.1 7.69293 5.1C7.69801 5.1 7.70308 5.1 7.70816 5.1C7.71324 5.1 7.71831 5.1 7.72338 5.1C7.72846 5.1 7.73353 5.1 7.7386 5.1C7.74367 5.1 7.74874 5.1 7.75381 5.1C7.75888 5.1 7.76395 5.1 7.76902 5.1C7.77409 5.1 7.77915 5.1 7.78422 5.1C7.78928 5.1 7.79435 5.1 7.79941 5.1C7.80447 5.1 7.80953 5.1 7.81459 5.1C7.81965 5.1 7.82471 5.1 7.82977 5.1C7.83483 5.1 7.83989 5.1 7.84494 5.1C7.85 5.1 7.85506 5.1 7.86011 5.1C7.86516 5.1 7.87022 5.1 7.87527 5.1C7.88032 5.1 7.88537 5.1 7.89042 5.1C7.89547 5.1 7.90052 5.1 7.90557 5.1C7.91062 5.1 7.91567 5.1 7.92071 5.1C7.92576 5.1 7.9308 5.1 7.93585 5.1C7.94089 5.1 7.94593 5.1 7.95097 5.1C7.95602 5.1 7.96106 5.1 7.9661 5.1C7.97114 5.1 7.97618 5.1 7.98121 5.1C7.98625 5.1 7.99129 5.1 7.99633 5.1C8.00136 5.1 8.0064 5.1 8.01143 5.1C8.01646 5.1 8.0215 5.1 8.02653 5.1C8.03156 5.1 8.03659 5.1 8.04162 5.1C8.04665 5.1 8.05168 5.1 8.05671 5.1C8.06174 5.1 8.06676 5.1 8.07179 5.1C8.07682 5.1 8.08184 5.1 8.08687 5.1C8.09189 5.1 8.09692 5.1 8.10194 5.1C8.10696 5.1 8.11198 5.1 8.117 5.1C8.12202 5.1 8.12704 5.1 8.13206 5.1C8.13708 5.1 8.1421 5.1 8.14712 5.1C8.15213 5.1 8.15715 5.1 8.16216 5.1C8.16718 5.1 8.17219 5.1 8.17721 5.1C8.18222 5.1 8.18723 5.1 8.19224 5.1C8.19726 5.1 8.20227 5.1 8.20728 5.1C8.21229 5.1 8.21729 5.1 8.2223 5.1C8.22731 5.1 8.23232 5.1 8.23732 5.1C8.24233 5.1 8.24734 5.1 8.25234 5.1C8.25734 5.1 8.26235 5.1 8.26735 5.1C8.27235 5.1 8.27736 5.1 8.28236 5.1C8.28736 5.1 8.29236 5.1 8.29736 5.1C8.30236 5.1 8.30736 5.1 8.31235 5.1C8.31735 5.1 8.32235 5.1 8.32735 5.1C8.33234 5.1 8.33734 5.1 8.34233 5.1C8.34733 5.1 8.35232 5.1 8.35731 5.1C8.36231 5.1 8.3673 5.1 8.37229 5.1C8.37728 5.1 8.38227 5.1 8.38726 5.1C8.39225 5.1 8.39724 5.1 8.40223 5.1C8.40722 5.1 8.4122 5.1 8.41719 5.1C8.42218 5.1 8.42716 5.1 8.43215 5.1C8.43713 5.1 8.44212 5.1 8.4471 5.1C8.45208 5.1 8.45707 5.1 8.46205 5.1C8.46703 5.1 8.47201 5.1 8.47699 5.1C8.48197 5.1 8.48695 5.1 8.49193 5.1C8.49691 5.1 8.50189 5.1 8.50686 5.1C8.51184 5.1 8.51682 5.1 8.52179 5.1C8.52677 5.1 8.53174 5.1 8.53672 5.1C8.54169 5.1 8.54667 5.1 8.55164 5.1C8.55661 5.1 8.56159 5.1 8.56656 5.1C8.57153 5.1 8.5765 5.1 8.58147 5.1C8.58644 5.1 8.59141 5.1 8.59638 5.1C8.60135 5.1 8.60632 5.1 8.61128 5.1C8.61625 5.1 8.62122 5.1 8.62618 5.1C8.63115 5.1 8.63612 5.1 8.64108 5.1C8.64605 5.1 8.65101 5.1 8.65597 5.1C8.66094 5.1 8.6659 5.1 8.67086 5.1C8.67582 5.1 8.68079 5.1 8.68575 5.1C8.69071 5.1 8.69567 5.1 8.70063 5.1C8.70559 5.1 8.71054 5.1 8.7155 5.1C8.72046 5.1 8.72542 5.1 8.73038 5.1C8.73533 5.1 8.74029 5.1 8.74524 5.1C8.7502 5.1 8.75516 5.1 8.76011 5.1C8.76506 5.1 8.77002 5.1 8.77497 5.1C8.77992 5.1 8.78488 5.1 8.78983 5.1C8.79478 5.1 8.79973 5.1 8.80468 5.1C8.80964 5.1 8.81459 5.1 8.81954 5.1C8.82448 5.1 8.82943 5.1 8.83438 5.1C8.83933 5.1 8.84428 5.1 8.84923 5.1C8.85417 5.1 8.85912 5.1 8.86407 5.1C8.86901 5.1 8.87396 5.1 8.8789 5.1C8.88385 5.1 8.88879 5.1 8.89374 5.1C8.89868 5.1 8.90363 5.1 8.90857 5.1C8.91351 5.1 8.91845 5.1 8.9234 5.1C8.92834 5.1 8.93328 5.1 8.93822 5.1C8.94316 5.1 8.9481 5.1 8.95304 5.1C8.95798 5.1 8.96292 5.1 8.96786 5.1C8.9728 5.1 8.97774 5.1 8.98267 5.1C8.98761 5.1 8.99255 5.1 8.99749 5.1C9.00242 5.1 9.00736 5.1 9.01229 5.1C9.01723 5.1 9.02217 5.1 9.0271 5.1C9.03203 5.1 9.03697 5.1 9.0419 5.1C9.04684 5.1 9.05177 5.1 9.0567 5.1C9.06164 5.1 9.06657 5.1 9.0715 5.1C9.07643 5.1 9.08136 5.1 9.0863 5.1C9.09123 5.1 9.09616 5.1 9.10109 5.1C9.10602 5.1 9.11095 5.1 9.11588 5.1C9.12081 5.1 9.12573 5.1 9.13066 5.1C9.13559 5.1 9.14052 5.1 9.14545 5.1C9.15037 5.1 9.1553 5.1 9.16023 5.1C9.16516 5.1 9.17008 5.1 9.17501 5.1C9.17993 5.1 9.18486 5.1 9.18978 5.1C9.19471 5.1 9.19963 5.1 9.20456 5.1C9.20948 5.1 9.21441 5.1 9.21933 5.1C9.22425 5.1 9.22918 5.1 9.2341 5.1C9.23902 5.1 9.24394 5.1 9.24887 5.1C9.25379 5.1 9.25871 5.1 9.26363 5.1C9.26855 5.1 9.27347 5.1 9.27839 5.1C9.28331 5.1 9.28823 5.1 9.29315 5.1C9.29807 5.1 9.30299 5.1 9.30791 5.1C9.31283 5.1 9.31775 5.1 9.32267 5.1C9.32759 5.1 9.33251 5.1 9.33742 5.1C9.34234 5.1 9.34726 5.1 9.35218 5.1C9.35709 5.1 9.36201 5.1 9.36693 5.1C9.37184 5.1 9.37676 5.1 9.38168 5.1C9.38659 5.1 9.39151 5.1 9.39642 5.1C9.40134 5.1 9.40625 5.1 9.41117 5.1C9.41608 5.1 9.421 5.1 9.42591 5.1C9.43083 5.1 9.43574 5.1 9.44065 5.1C9.44557 5.1 9.45048 5.1 9.45539 5.1C9.46031 5.1 9.46522 5.1 9.47013 5.1C9.47504 5.1 9.47996 5.1 9.48487 5.1C9.48978 5.1 9.49469 5.1 9.4996 5.1C9.50451 5.1 9.50943 5.1 9.51434 5.1C9.51925 5.1 9.52416 5.1 9.52907 5.1C9.53398 5.1 9.53889 5.1 9.5438 5.1C9.54871 5.1 9.55362 5.1 9.55853 5.1C9.56344 5.1 9.56835 5.1 9.57326 5.1C9.57817 5.1 9.58308 5.1 9.58798 5.1C9.59289 5.1 9.5978 5.1 9.60271 5.1C9.60762 5.1 9.61253 5.1 9.61743 5.1C9.62234 5.1 9.62725 5.1 9.63216 5.1C9.63706 5.1 9.64197 5.1 9.64688 5.1C9.65179 5.1 9.65669 5.1 9.6616 5.1C9.66651 5.1 9.67141 5.1 9.67632 5.1C9.68123 5.1 9.68613 5.1 9.69104 5.1C9.69595 5.1 9.70085 5.1 9.70576 5.1C9.71066 5.1 9.71557 5.1 9.72048 5.1C9.72538 5.1 9.73029 5.1 9.73519 5.1C9.7401 5.1 9.745 5.1 9.74991 5.1C9.75481 5.1 9.75972 5.1 9.76462 5.1C9.76953 5.1 9.77443 5.1 9.77934 5.1C9.78424 5.1 9.78915 5.1 9.79405 5.1C9.79896 5.1 9.80386 5.1 9.80876 5.1C9.81367 5.1 9.81857 5.1 9.82348 5.1C9.82838 5.1 9.83329 5.1 9.83819 5.1C9.84309 5.1 9.848 5.1 9.8529 5.1C9.8578 5.1 9.86271 5.1 9.86761 5.1C9.87252 5.1 9.87742 5.1 9.88232 5.1C9.88723 5.1 9.89213 5.1 9.89703 5.1C9.90194 5.1 9.90684 5.1 9.91174 5.1C9.91665 5.1 9.92155 5.1 9.92645 5.1C9.93136 5.1 9.93626 5.1 9.94116 5.1C9.94607 5.1 9.95097 5.1 9.95587 5.1C9.96078 5.1 9.96568 5.1 9.97058 5.1C9.97548 5.1 9.98039 5.1 9.98529 5.1C9.99019 5.1 9.9951 5.1 10 5.1C10.0049 5.1 10.0098 5.1 10.0147 5.1C10.0196 5.1 10.0245 5.1 10.0294 5.1C10.0343 5.1 10.0392 5.1 10.0441 5.1C10.049 5.1 10.0539 5.1 10.0588 5.1C10.0637 5.1 10.0686 5.1 10.0735 5.1C10.0784 5.1 10.0834 5.1 10.0883 5.1C10.0932 5.1 10.0981 5.1 10.103 5.1C10.1079 5.1 10.1128 5.1 10.1177 5.1C10.1226 5.1 10.1275 5.1 10.1324 5.1C10.1373 5.1 10.1422 5.1 10.1471 5.1C10.152 5.1 10.1569 5.1 10.1618 5.1C10.1667 5.1 10.1716 5.1 10.1765 5.1C10.1814 5.1 10.1863 5.1 10.1912 5.1C10.1961 5.1 10.201 5.1 10.2059 5.1C10.2109 5.1 10.2158 5.1 10.2207 5.1C10.2256 5.1 10.2305 5.1 10.2354 5.1C10.2403 5.1 10.2452 5.1 10.2501 5.1C10.255 5.1 10.2599 5.1 10.2648 5.1C10.2697 5.1 10.2746 5.1 10.2795 5.1C10.2844 5.1 10.2893 5.1 10.2942 5.1C10.2991 5.1 10.3041 5.1 10.309 5.1C10.3139 5.1 10.3188 5.1 10.3237 5.1C10.3286 5.1 10.3335 5.1 10.3384 5.1C10.3433 5.1 10.3482 5.1 10.3531 5.1C10.358 5.1 10.3629 5.1 10.3678 5.1C10.3727 5.1 10.3777 5.1 10.3826 5.1C10.3875 5.1 10.3924 5.1 10.3973 5.1C10.4022 5.1 10.4071 5.1 10.412 5.1C10.4169 5.1 10.4218 5.1 10.4267 5.1C10.4317 5.1 10.4366 5.1 10.4415 5.1C10.4464 5.1 10.4513 5.1 10.4562 5.1C10.4611 5.1 10.466 5.1 10.4709 5.1C10.4758 5.1 10.4808 5.1 10.4857 5.1C10.4906 5.1 10.4955 5.1 10.5004 5.1C10.5053 5.1 10.5102 5.1 10.5151 5.1C10.52 5.1 10.525 5.1 10.5299 5.1C10.5348 5.1 10.5397 5.1 10.5446 5.1C10.5495 5.1 10.5544 5.1 10.5593 5.1C10.5643 5.1 10.5692 5.1 10.5741 5.1C10.579 5.1 10.5839 5.1 10.5888 5.1C10.5937 5.1 10.5987 5.1 10.6036 5.1C10.6085 5.1 10.6134 5.1 10.6183 5.1C10.6232 5.1 10.6282 5.1 10.6331 5.1C10.638 5.1 10.6429 5.1 10.6478 5.1C10.6527 5.1 10.6577 5.1 10.6626 5.1C10.6675 5.1 10.6724 5.1 10.6773 5.1C10.6822 5.1 10.6872 5.1 10.6921 5.1C10.697 5.1 10.7019 5.1 10.7068 5.1C10.7118 5.1 10.7167 5.1 10.7216 5.1C10.7265 5.1 10.7314 5.1 10.7364 5.1C10.7413 5.1 10.7462 5.1 10.7511 5.1C10.7561 5.1 10.761 5.1 10.7659 5.1C10.7708 5.1 10.7757 5.1 10.7807 5.1C10.7856 5.1 10.7905 5.1 10.7954 5.1C10.8004 5.1 10.8053 5.1 10.8102 5.1C10.8151 5.1 10.8201 5.1 10.825 5.1C10.8299 5.1 10.8348 5.1 10.8398 5.1C10.8447 5.1 10.8496 5.1 10.8546 5.1C10.8595 5.1 10.8644 5.1 10.8693 5.1C10.8743 5.1 10.8792 5.1 10.8841 5.1C10.8891 5.1 10.894 5.1 10.8989 5.1C10.9038 5.1 10.9088 5.1 10.9137 5.1C10.9186 5.1 10.9236 5.1 10.9285 5.1C10.9334 5.1 10.9384 5.1 10.9433 5.1C10.9482 5.1 10.9532 5.1 10.9581 5.1C10.963 5.1 10.968 5.1 10.9729 5.1C10.9778 5.1 10.9828 5.1 10.9877 5.1C10.9926 5.1 10.9976 5.1 11.0025 5.1C11.0075 5.1 11.0124 5.1 11.0173 5.1C11.0223 5.1 11.0272 5.1 11.0321 5.1C11.0371 5.1 11.042 5.1 11.047 5.1C11.0519 5.1 11.0568 5.1 11.0618 5.1C11.0667 5.1 11.0717 5.1 11.0766 5.1C11.0815 5.1 11.0865 5.1 11.0914 5.1C11.0964 5.1 11.1013 5.1 11.1063 5.1C11.1112 5.1 11.1162 5.1 11.1211 5.1C11.126 5.1 11.131 5.1 11.1359 5.1C11.1409 5.1 11.1458 5.1 11.1508 5.1C11.1557 5.1 11.1607 5.1 11.1656 5.1C11.1706 5.1 11.1755 5.1 11.1805 5.1C11.1854 5.1 11.1904 5.1 11.1953 5.1C11.2003 5.1 11.2052 5.1 11.2102 5.1C11.2151 5.1 11.2201 5.1 11.225 5.1C11.23 5.1 11.2349 5.1 11.2399 5.1C11.2448 5.1 11.2498 5.1 11.2548 5.1C11.2597 5.1 11.2647 5.1 11.2696 5.1C11.2746 5.1 11.2795 5.1 11.2845 5.1C11.2895 5.1 11.2944 5.1 11.2994 5.1C11.3043 5.1 11.3093 5.1 11.3143 5.1C11.3192 5.1 11.3242 5.1 11.3291 5.1C11.3341 5.1 11.3391 5.1 11.344 5.1C11.349 5.1 11.354 5.1 11.3589 5.1C11.3639 5.1 11.3688 5.1 11.3738 5.1C11.3788 5.1 11.3837 5.1 11.3887 5.1C11.3937 5.1 11.3987 5.1 11.4036 5.1C11.4086 5.1 11.4136 5.1 11.4185 5.1C11.4235 5.1 11.4285 5.1 11.4334 5.1C11.4384 5.1 11.4434 5.1 11.4484 5.1C11.4533 5.1 11.4583 5.1 11.4633 5.1C11.4683 5.1 11.4732 5.1 11.4782 5.1C11.4832 5.1 11.4882 5.1 11.4931 5.1C11.4981 5.1 11.5031 5.1 11.5081 5.1C11.513 5.1 11.518 5.1 11.523 5.1C11.528 5.1 11.533 5.1 11.538 5.1C11.5429 5.1 11.5479 5.1 11.5529 5.1C11.5579 5.1 11.5629 5.1 11.5679 5.1C11.5728 5.1 11.5778 5.1 11.5828 5.1C11.5878 5.1 11.5928 5.1 11.5978 5.1C11.6028 5.1 11.6077 5.1 11.6127 5.1C11.6177 5.1 11.6227 5.1 11.6277 5.1C11.6327 5.1 11.6377 5.1 11.6427 5.1C11.6477 5.1 11.6527 5.1 11.6577 5.1C11.6627 5.1 11.6677 5.1 11.6727 5.1C11.6777 5.1 11.6826 5.1 11.6876 5.1C11.6926 5.1 11.6976 5.1 11.7026 5.1C11.7076 5.1 11.7126 5.1 11.7176 5.1C11.7226 5.1 11.7276 5.1 11.7326 5.1C11.7377 5.1 11.7427 5.1 11.7477 5.1C11.7527 5.1 11.7577 5.1 11.7627 5.1C11.7677 5.1 11.7727 5.1 11.7777 5.1C11.7827 5.1 11.7877 5.1 11.7927 5.1C11.7977 5.1 11.8027 5.1 11.8078 5.1C11.8128 5.1 11.8178 5.1 11.8228 5.1C11.8278 5.1 11.8328 5.1 11.8378 5.1C11.8429 5.1 11.8479 5.1 11.8529 5.1C11.8579 5.1 11.8629 5.1 11.8679 5.1C11.873 5.1 11.878 5.1 11.883 5.1C11.888 5.1 11.893 5.1 11.8981 5.1C11.9031 5.1 11.9081 5.1 11.9131 5.1C11.9182 5.1 11.9232 5.1 11.9282 5.1C11.9332 5.1 11.9383 5.1 11.9433 5.1C11.9483 5.1 11.9533 5.1 11.9584 5.1C11.9634 5.1 11.9684 5.1 11.9735 5.1C11.9785 5.1 11.9835 5.1 11.9886 5.1C11.9936 5.1 11.9986 5.1 12.0037 5.1C12.0087 5.1 12.0137 5.1 12.0188 5.1C12.0238 5.1 12.0289 5.1 12.0339 5.1C12.0389 5.1 12.044 5.1 12.049 5.1C12.0541 5.1 12.0591 5.1 12.0642 5.1C12.0692 5.1 12.0742 5.1 12.0793 5.1C12.0843 5.1 12.0894 5.1 12.0944 5.1C12.0995 5.1 12.1045 5.1 12.1096 5.1C12.1146 5.1 12.1197 5.1 12.1247 5.1C12.1298 5.1 12.1348 5.1 12.1399 5.1C12.1449 5.1 12.15 5.1 12.1551 5.1C12.1601 5.1 12.1652 5.1 12.1702 5.1C12.1753 5.1 12.1803 5.1 12.1854 5.1C12.1905 5.1 12.1955 5.1 12.2006 5.1C12.2057 5.1 12.2107 5.1 12.2158 5.1C12.2208 5.1 12.2259 5.1 12.231 5.1C12.236 5.1 12.2411 5.1 12.2462 5.1C12.2513 5.1 12.2563 5.1 12.2614 5.1C12.2665 5.1 12.2715 5.1 12.2766 5.1C12.2817 5.1 12.2868 5.1 12.2918 5.1C12.2969 5.1 12.302 5.1 12.3071 5.1C12.3121 5.1 12.3172 5.1 12.3223 5.1C12.3274 5.1 12.3325 5.1 12.3376 5.1C12.3426 5.1 12.3477 5.1 12.3528 5.1C12.3579 5.1 12.363 5.1 12.3681 5.1C12.3732 5.1 12.3782 5.1 12.3833 5.1C12.3884 5.1 12.3935 5.1 12.3986 5.1C12.4037 5.1 12.4088 5.1 12.4139 5.1C12.419 5.1 12.4241 5.1 12.4292 5.1C12.4343 5.1 12.4394 5.1 12.4445 5.1C12.4496 5.1 12.4547 5.1 12.4598 5.1C12.4649 5.1 12.47 5.1 12.4751 5.1C12.4802 5.1 12.4853 5.1 12.4904 5.1C12.4955 5.1 12.5006 5.1 12.5057 5.1C12.5108 5.1 12.5159 5.1 12.521 5.1C12.5262 5.1 12.5313 5.1 12.5364 5.1C12.5415 5.1 12.5466 5.1 12.5517 5.1C12.5568 5.1 12.562 5.1 12.5671 5.1C12.5722 5.1 12.5773 5.1 12.5824 5.1C12.5876 5.1 12.5927 5.1 12.5978 5.1C12.6029 5.1 12.6081 5.1 12.6132 5.1C12.6183 5.1 12.6234 5.1 12.6286 5.1C12.6337 5.1 12.6388 5.1 12.644 5.1C12.6491 5.1 12.6542 5.1 12.6594 5.1C12.6645 5.1 12.6696 5.1 12.6748 5.1C12.6799 5.1 12.685 5.1 12.6902 5.1C12.6953 5.1 12.7005 5.1 12.7056 5.1C12.7107 5.1 12.7159 5.1 12.721 5.1C12.7262 5.1 12.7313 5.1 12.7365 5.1C12.7416 5.1 12.7468 5.1 12.7519 5.1C12.7571 5.1 12.7622 5.1 12.7674 5.1C12.7725 5.1 12.7777 5.1 12.7828 5.1C12.788 5.1 12.7931 5.1 12.7983 5.1C12.8035 5.1 12.8086 5.1 12.8138 5.1C12.8189 5.1 12.8241 5.1 12.8293 5.1C12.8344 5.1 12.8396 5.1 12.8448 5.1C12.8499 5.1 12.8551 5.1 12.8603 5.1C12.8654 5.1 12.8706 5.1 12.8758 5.1C12.8809 5.1 12.8861 5.1 12.8913 5.1C12.8965 5.1 12.9016 5.1 12.9068 5.1C12.912 5.1 12.9172 5.1 12.9224 5.1C12.9275 5.1 12.9327 5.1 12.9379 5.1C12.9431 5.1 12.9483 5.1 12.9535 5.1C12.9586 5.1 12.9638 5.1 12.969 5.1C12.9742 5.1 12.9794 5.1 12.9846 5.1C12.9898 5.1 12.995 5.1 13.0002 5.1C13.0054 5.1 13.0106 5.1 13.0158 5.1C13.0209 5.1 13.0261 5.1 13.0313 5.1C13.0365 5.1 13.0418 5.1 13.047 5.1C13.0522 5.1 13.0574 5.1 13.0626 5.1C13.0678 5.1 13.073 5.1 13.0782 5.1C13.0834 5.1 13.0886 5.1 13.0938 5.1C13.099 5.1 13.1043 5.1 13.1095 5.1C13.1147 5.1 13.1199 5.1 13.1251 5.1C13.1303 5.1 13.1356 5.1 13.1408 5.1C13.146 5.1 13.1512 5.1 13.1565 5.1C13.1617 5.1 13.1669 5.1 13.1721 5.1C13.1774 5.1 13.1826 5.1 13.1878 5.1C13.193 5.1 13.1983 5.1 13.2035 5.1C13.2087 5.1 13.214 5.1 13.2192 5.1C13.2245 5.1 13.2297 5.1 13.2349 5.1C13.2402 5.1 13.2454 5.1 13.2507 5.1C13.2559 5.1 13.2611 5.1 13.2664 5.1C13.2716 5.1 13.2769 5.1 13.2821 5.1C13.2874 5.1 13.2926 5.1 13.2979 5.1C13.3031 5.1 13.3084 5.1 13.3137 5.1C13.3189 5.1 13.3242 5.1 13.3294 5.1C13.3347 5.1 13.3399 5.1 13.3452 5.1C13.3505 5.1 13.3557 5.1 13.361 5.1C13.3663 5.1 13.3715 5.1 13.3768 5.1C13.3821 5.1 13.3873 5.1 13.3926 5.1C13.3979 5.1 13.4032 5.1 13.4084 5.1C13.4137 5.1 13.419 5.1 13.4243 5.1C13.4295 5.1 13.4348 5.1 13.4401 5.1C13.4454 5.1 13.4507 5.1 13.456 5.1C13.4612 5.1 13.4665 5.1 13.4718 5.1C13.4771 5.1 13.4824 5.1 13.4877 5.1C13.493 5.1 13.4983 5.1 13.5036 5.1C13.5089 5.1 13.5142 5.1 13.5195 5.1C13.5248 5.1 13.5301 5.1 13.5354 5.1C13.5407 5.1 13.546 5.1 13.5513 5.1C13.5566 5.1 13.5619 5.1 13.5672 5.1C13.5725 5.1 13.5778 5.1 13.5831 5.1C13.5884 5.1 13.5938 5.1 13.5991 5.1C13.6044 5.1 13.6097 5.1 13.615 5.1C13.6204 5.1 13.6257 5.1 13.631 5.1C13.6363 5.1 13.6416 5.1 13.647 5.1C13.6523 5.1 13.6576 5.1 13.663 5.1C13.6683 5.1 13.6736 5.1 13.679 5.1C13.6843 5.1 13.6896 5.1 13.695 5.1C13.7003 5.1 13.7056 5.1 13.711 5.1C13.7163 5.1 13.7217 5.1 13.727 5.1C13.7323 5.1 13.7377 5.1 13.743 5.1C13.7484 5.1 13.7537 5.1 13.7591 5.1C13.7644 5.1 13.7698 5.1 13.7752 5.1C13.7805 5.1 13.7859 5.1 13.7912 5.1C13.7966 5.1 13.8019 5.1 13.8073 5.1C13.8127 5.1 13.818 5.1 13.8234 5.1C13.8288 5.1 13.8341 5.1 13.8395 5.1C13.8449 5.1 13.8502 5.1 13.8556 5.1C13.861 5.1 13.8664 5.1 13.8717 5.1C13.8771 5.1 13.8825 5.1 13.8879 5.1V3.7C13.8825 3.7 13.8771 3.7 13.8717 3.7C13.8664 3.7 13.861 3.7 13.8556 3.7C13.8502 3.7 13.8449 3.7 13.8395 3.7C13.8341 3.7 13.8288 3.7 13.8234 3.7C13.818 3.7 13.8127 3.7 13.8073 3.7C13.8019 3.7 13.7966 3.7 13.7912 3.7C13.7859 3.7 13.7805 3.7 13.7752 3.7C13.7698 3.7 13.7644 3.7 13.7591 3.7C13.7537 3.7 13.7484 3.7 13.743 3.7C13.7377 3.7 13.7323 3.7 13.727 3.7C13.7217 3.7 13.7163 3.7 13.711 3.7C13.7056 3.7 13.7003 3.7 13.695 3.7C13.6896 3.7 13.6843 3.7 13.679 3.7C13.6736 3.7 13.6683 3.7 13.663 3.7C13.6576 3.7 13.6523 3.7 13.647 3.7C13.6416 3.7 13.6363 3.7 13.631 3.7C13.6257 3.7 13.6204 3.7 13.615 3.7C13.6097 3.7 13.6044 3.7 13.5991 3.7C13.5938 3.7 13.5884 3.7 13.5831 3.7C13.5778 3.7 13.5725 3.7 13.5672 3.7C13.5619 3.7 13.5566 3.7 13.5513 3.7C13.546 3.7 13.5407 3.7 13.5354 3.7C13.5301 3.7 13.5248 3.7 13.5195 3.7C13.5142 3.7 13.5089 3.7 13.5036 3.7C13.4983 3.7 13.493 3.7 13.4877 3.7C13.4824 3.7 13.4771 3.7 13.4718 3.7C13.4665 3.7 13.4612 3.7 13.456 3.7C13.4507 3.7 13.4454 3.7 13.4401 3.7C13.4348 3.7 13.4295 3.7 13.4243 3.7C13.419 3.7 13.4137 3.7 13.4084 3.7C13.4032 3.7 13.3979 3.7 13.3926 3.7C13.3873 3.7 13.3821 3.7 13.3768 3.7C13.3715 3.7 13.3663 3.7 13.361 3.7C13.3557 3.7 13.3505 3.7 13.3452 3.7C13.3399 3.7 13.3347 3.7 13.3294 3.7C13.3242 3.7 13.3189 3.7 13.3137 3.7C13.3084 3.7 13.3031 3.7 13.2979 3.7C13.2926 3.7 13.2874 3.7 13.2821 3.7C13.2769 3.7 13.2716 3.7 13.2664 3.7C13.2611 3.7 13.2559 3.7 13.2507 3.7C13.2454 3.7 13.2402 3.7 13.2349 3.7C13.2297 3.7 13.2245 3.7 13.2192 3.7C13.214 3.7 13.2087 3.7 13.2035 3.7C13.1983 3.7 13.193 3.7 13.1878 3.7C13.1826 3.7 13.1774 3.7 13.1721 3.7C13.1669 3.7 13.1617 3.7 13.1565 3.7C13.1512 3.7 13.146 3.7 13.1408 3.7C13.1356 3.7 13.1303 3.7 13.1251 3.7C13.1199 3.7 13.1147 3.7 13.1095 3.7C13.1043 3.7 13.099 3.7 13.0938 3.7C13.0886 3.7 13.0834 3.7 13.0782 3.7C13.073 3.7 13.0678 3.7 13.0626 3.7C13.0574 3.7 13.0522 3.7 13.047 3.7C13.0418 3.7 13.0365 3.7 13.0313 3.7C13.0261 3.7 13.0209 3.7 13.0158 3.7C13.0106 3.7 13.0054 3.7 13.0002 3.7C12.995 3.7 12.9898 3.7 12.9846 3.7C12.9794 3.7 12.9742 3.7 12.969 3.7C12.9638 3.7 12.9586 3.7 12.9535 3.7C12.9483 3.7 12.9431 3.7 12.9379 3.7C12.9327 3.7 12.9275 3.7 12.9224 3.7C12.9172 3.7 12.912 3.7 12.9068 3.7C12.9016 3.7 12.8965 3.7 12.8913 3.7C12.8861 3.7 12.8809 3.7 12.8758 3.7C12.8706 3.7 12.8654 3.7 12.8603 3.7C12.8551 3.7 12.8499 3.7 12.8448 3.7C12.8396 3.7 12.8344 3.7 12.8293 3.7C12.8241 3.7 12.8189 3.7 12.8138 3.7C12.8086 3.7 12.8035 3.7 12.7983 3.7C12.7931 3.7 12.788 3.7 12.7828 3.7C12.7777 3.7 12.7725 3.7 12.7674 3.7C12.7622 3.7 12.7571 3.7 12.7519 3.7C12.7468 3.7 12.7416 3.7 12.7365 3.7C12.7313 3.7 12.7262 3.7 12.721 3.7C12.7159 3.7 12.7107 3.7 12.7056 3.7C12.7005 3.7 12.6953 3.7 12.6902 3.7C12.685 3.7 12.6799 3.7 12.6748 3.7C12.6696 3.7 12.6645 3.7 12.6594 3.7C12.6542 3.7 12.6491 3.7 12.644 3.7C12.6388 3.7 12.6337 3.7 12.6286 3.7C12.6234 3.7 12.6183 3.7 12.6132 3.7C12.6081 3.7 12.6029 3.7 12.5978 3.7C12.5927 3.7 12.5876 3.7 12.5824 3.7C12.5773 3.7 12.5722 3.7 12.5671 3.7C12.562 3.7 12.5568 3.7 12.5517 3.7C12.5466 3.7 12.5415 3.7 12.5364 3.7C12.5313 3.7 12.5262 3.7 12.521 3.7C12.5159 3.7 12.5108 3.7 12.5057 3.7C12.5006 3.7 12.4955 3.7 12.4904 3.7C12.4853 3.7 12.4802 3.7 12.4751 3.7C12.47 3.7 12.4649 3.7 12.4598 3.7C12.4547 3.7 12.4496 3.7 12.4445 3.7C12.4394 3.7 12.4343 3.7 12.4292 3.7C12.4241 3.7 12.419 3.7 12.4139 3.7C12.4088 3.7 12.4037 3.7 12.3986 3.7C12.3935 3.7 12.3884 3.7 12.3833 3.7C12.3782 3.7 12.3732 3.7 12.3681 3.7C12.363 3.7 12.3579 3.7 12.3528 3.7C12.3477 3.7 12.3426 3.7 12.3376 3.7C12.3325 3.7 12.3274 3.7 12.3223 3.7C12.3172 3.7 12.3121 3.7 12.3071 3.7C12.302 3.7 12.2969 3.7 12.2918 3.7C12.2868 3.7 12.2817 3.7 12.2766 3.7C12.2715 3.7 12.2665 3.7 12.2614 3.7C12.2563 3.7 12.2513 3.7 12.2462 3.7C12.2411 3.7 12.236 3.7 12.231 3.7C12.2259 3.7 12.2208 3.7 12.2158 3.7C12.2107 3.7 12.2057 3.7 12.2006 3.7C12.1955 3.7 12.1905 3.7 12.1854 3.7C12.1803 3.7 12.1753 3.7 12.1702 3.7C12.1652 3.7 12.1601 3.7 12.1551 3.7C12.15 3.7 12.1449 3.7 12.1399 3.7C12.1348 3.7 12.1298 3.7 12.1247 3.7C12.1197 3.7 12.1146 3.7 12.1096 3.7C12.1045 3.7 12.0995 3.7 12.0944 3.7C12.0894 3.7 12.0843 3.7 12.0793 3.7C12.0742 3.7 12.0692 3.7 12.0642 3.7C12.0591 3.7 12.0541 3.7 12.049 3.7C12.044 3.7 12.0389 3.7 12.0339 3.7C12.0289 3.7 12.0238 3.7 12.0188 3.7C12.0137 3.7 12.0087 3.7 12.0037 3.7C11.9986 3.7 11.9936 3.7 11.9886 3.7C11.9835 3.7 11.9785 3.7 11.9735 3.7C11.9684 3.7 11.9634 3.7 11.9584 3.7C11.9533 3.7 11.9483 3.7 11.9433 3.7C11.9383 3.7 11.9332 3.7 11.9282 3.7C11.9232 3.7 11.9182 3.7 11.9131 3.7C11.9081 3.7 11.9031 3.7 11.8981 3.7C11.893 3.7 11.888 3.7 11.883 3.7C11.878 3.7 11.873 3.7 11.8679 3.7C11.8629 3.7 11.8579 3.7 11.8529 3.7C11.8479 3.7 11.8429 3.7 11.8378 3.7C11.8328 3.7 11.8278 3.7 11.8228 3.7C11.8178 3.7 11.8128 3.7 11.8078 3.7C11.8027 3.7 11.7977 3.7 11.7927 3.7C11.7877 3.7 11.7827 3.7 11.7777 3.7C11.7727 3.7 11.7677 3.7 11.7627 3.7C11.7577 3.7 11.7527 3.7 11.7477 3.7C11.7427 3.7 11.7377 3.7 11.7326 3.7C11.7276 3.7 11.7226 3.7 11.7176 3.7C11.7126 3.7 11.7076 3.7 11.7026 3.7C11.6976 3.7 11.6926 3.7 11.6876 3.7C11.6826 3.7 11.6777 3.7 11.6727 3.7C11.6677 3.7 11.6627 3.7 11.6577 3.7C11.6527 3.7 11.6477 3.7 11.6427 3.7C11.6377 3.7 11.6327 3.7 11.6277 3.7C11.6227 3.7 11.6177 3.7 11.6127 3.7C11.6077 3.7 11.6028 3.7 11.5978 3.7C11.5928 3.7 11.5878 3.7 11.5828 3.7C11.5778 3.7 11.5728 3.7 11.5679 3.7C11.5629 3.7 11.5579 3.7 11.5529 3.7C11.5479 3.7 11.5429 3.7 11.538 3.7C11.533 3.7 11.528 3.7 11.523 3.7C11.518 3.7 11.513 3.7 11.5081 3.7C11.5031 3.7 11.4981 3.7 11.4931 3.7C11.4882 3.7 11.4832 3.7 11.4782 3.7C11.4732 3.7 11.4683 3.7 11.4633 3.7C11.4583 3.7 11.4533 3.7 11.4484 3.7C11.4434 3.7 11.4384 3.7 11.4334 3.7C11.4285 3.7 11.4235 3.7 11.4185 3.7C11.4136 3.7 11.4086 3.7 11.4036 3.7C11.3987 3.7 11.3937 3.7 11.3887 3.7C11.3837 3.7 11.3788 3.7 11.3738 3.7C11.3688 3.7 11.3639 3.7 11.3589 3.7C11.354 3.7 11.349 3.7 11.344 3.7C11.3391 3.7 11.3341 3.7 11.3291 3.7C11.3242 3.7 11.3192 3.7 11.3143 3.7C11.3093 3.7 11.3043 3.7 11.2994 3.7C11.2944 3.7 11.2895 3.7 11.2845 3.7C11.2795 3.7 11.2746 3.7 11.2696 3.7C11.2647 3.7 11.2597 3.7 11.2548 3.7C11.2498 3.7 11.2448 3.7 11.2399 3.7C11.2349 3.7 11.23 3.7 11.225 3.7C11.2201 3.7 11.2151 3.7 11.2102 3.7C11.2052 3.7 11.2003 3.7 11.1953 3.7C11.1904 3.7 11.1854 3.7 11.1805 3.7C11.1755 3.7 11.1706 3.7 11.1656 3.7C11.1607 3.7 11.1557 3.7 11.1508 3.7C11.1458 3.7 11.1409 3.7 11.1359 3.7C11.131 3.7 11.126 3.7 11.1211 3.7C11.1162 3.7 11.1112 3.7 11.1063 3.7C11.1013 3.7 11.0964 3.7 11.0914 3.7C11.0865 3.7 11.0815 3.7 11.0766 3.7C11.0717 3.7 11.0667 3.7 11.0618 3.7C11.0568 3.7 11.0519 3.7 11.047 3.7C11.042 3.7 11.0371 3.7 11.0321 3.7C11.0272 3.7 11.0223 3.7 11.0173 3.7C11.0124 3.7 11.0075 3.7 11.0025 3.7C10.9976 3.7 10.9926 3.7 10.9877 3.7C10.9828 3.7 10.9778 3.7 10.9729 3.7C10.968 3.7 10.963 3.7 10.9581 3.7C10.9532 3.7 10.9482 3.7 10.9433 3.7C10.9384 3.7 10.9334 3.7 10.9285 3.7C10.9236 3.7 10.9186 3.7 10.9137 3.7C10.9088 3.7 10.9038 3.7 10.8989 3.7C10.894 3.7 10.8891 3.7 10.8841 3.7C10.8792 3.7 10.8743 3.7 10.8693 3.7C10.8644 3.7 10.8595 3.7 10.8546 3.7C10.8496 3.7 10.8447 3.7 10.8398 3.7C10.8348 3.7 10.8299 3.7 10.825 3.7C10.8201 3.7 10.8151 3.7 10.8102 3.7C10.8053 3.7 10.8004 3.7 10.7954 3.7C10.7905 3.7 10.7856 3.7 10.7807 3.7C10.7757 3.7 10.7708 3.7 10.7659 3.7C10.761 3.7 10.7561 3.7 10.7511 3.7C10.7462 3.7 10.7413 3.7 10.7364 3.7C10.7314 3.7 10.7265 3.7 10.7216 3.7C10.7167 3.7 10.7118 3.7 10.7068 3.7C10.7019 3.7 10.697 3.7 10.6921 3.7C10.6872 3.7 10.6822 3.7 10.6773 3.7C10.6724 3.7 10.6675 3.7 10.6626 3.7C10.6577 3.7 10.6527 3.7 10.6478 3.7C10.6429 3.7 10.638 3.7 10.6331 3.7C10.6282 3.7 10.6232 3.7 10.6183 3.7C10.6134 3.7 10.6085 3.7 10.6036 3.7C10.5987 3.7 10.5937 3.7 10.5888 3.7C10.5839 3.7 10.579 3.7 10.5741 3.7C10.5692 3.7 10.5643 3.7 10.5593 3.7C10.5544 3.7 10.5495 3.7 10.5446 3.7C10.5397 3.7 10.5348 3.7 10.5299 3.7C10.525 3.7 10.52 3.7 10.5151 3.7C10.5102 3.7 10.5053 3.7 10.5004 3.7C10.4955 3.7 10.4906 3.7 10.4857 3.7C10.4808 3.7 10.4758 3.7 10.4709 3.7C10.466 3.7 10.4611 3.7 10.4562 3.7C10.4513 3.7 10.4464 3.7 10.4415 3.7C10.4366 3.7 10.4317 3.7 10.4267 3.7C10.4218 3.7 10.4169 3.7 10.412 3.7C10.4071 3.7 10.4022 3.7 10.3973 3.7C10.3924 3.7 10.3875 3.7 10.3826 3.7C10.3777 3.7 10.3727 3.7 10.3678 3.7C10.3629 3.7 10.358 3.7 10.3531 3.7C10.3482 3.7 10.3433 3.7 10.3384 3.7C10.3335 3.7 10.3286 3.7 10.3237 3.7C10.3188 3.7 10.3139 3.7 10.309 3.7C10.3041 3.7 10.2991 3.7 10.2942 3.7C10.2893 3.7 10.2844 3.7 10.2795 3.7C10.2746 3.7 10.2697 3.7 10.2648 3.7C10.2599 3.7 10.255 3.7 10.2501 3.7C10.2452 3.7 10.2403 3.7 10.2354 3.7C10.2305 3.7 10.2256 3.7 10.2207 3.7C10.2158 3.7 10.2109 3.7 10.2059 3.7C10.201 3.7 10.1961 3.7 10.1912 3.7C10.1863 3.7 10.1814 3.7 10.1765 3.7C10.1716 3.7 10.1667 3.7 10.1618 3.7C10.1569 3.7 10.152 3.7 10.1471 3.7C10.1422 3.7 10.1373 3.7 10.1324 3.7C10.1275 3.7 10.1226 3.7 10.1177 3.7C10.1128 3.7 10.1079 3.7 10.103 3.7C10.0981 3.7 10.0932 3.7 10.0883 3.7C10.0834 3.7 10.0784 3.7 10.0735 3.7C10.0686 3.7 10.0637 3.7 10.0588 3.7C10.0539 3.7 10.049 3.7 10.0441 3.7C10.0392 3.7 10.0343 3.7 10.0294 3.7C10.0245 3.7 10.0196 3.7 10.0147 3.7C10.0098 3.7 10.0049 3.7 10 3.7C9.9951 3.7 9.99019 3.7 9.98529 3.7C9.98039 3.7 9.97548 3.7 9.97058 3.7C9.96568 3.7 9.96078 3.7 9.95587 3.7C9.95097 3.7 9.94607 3.7 9.94116 3.7C9.93626 3.7 9.93136 3.7 9.92645 3.7C9.92155 3.7 9.91665 3.7 9.91174 3.7C9.90684 3.7 9.90194 3.7 9.89703 3.7C9.89213 3.7 9.88723 3.7 9.88232 3.7C9.87742 3.7 9.87252 3.7 9.86761 3.7C9.86271 3.7 9.8578 3.7 9.8529 3.7C9.848 3.7 9.84309 3.7 9.83819 3.7C9.83329 3.7 9.82838 3.7 9.82348 3.7C9.81857 3.7 9.81367 3.7 9.80876 3.7C9.80386 3.7 9.79896 3.7 9.79405 3.7C9.78915 3.7 9.78424 3.7 9.77934 3.7C9.77443 3.7 9.76953 3.7 9.76462 3.7C9.75972 3.7 9.75481 3.7 9.74991 3.7C9.745 3.7 9.7401 3.7 9.73519 3.7C9.73029 3.7 9.72538 3.7 9.72048 3.7C9.71557 3.7 9.71066 3.7 9.70576 3.7C9.70085 3.7 9.69595 3.7 9.69104 3.7C9.68613 3.7 9.68123 3.7 9.67632 3.7C9.67141 3.7 9.66651 3.7 9.6616 3.7C9.65669 3.7 9.65179 3.7 9.64688 3.7C9.64197 3.7 9.63706 3.7 9.63216 3.7C9.62725 3.7 9.62234 3.7 9.61743 3.7C9.61253 3.7 9.60762 3.7 9.60271 3.7C9.5978 3.7 9.59289 3.7 9.58798 3.7C9.58308 3.7 9.57817 3.7 9.57326 3.7C9.56835 3.7 9.56344 3.7 9.55853 3.7C9.55362 3.7 9.54871 3.7 9.5438 3.7C9.53889 3.7 9.53398 3.7 9.52907 3.7C9.52416 3.7 9.51925 3.7 9.51434 3.7C9.50943 3.7 9.50451 3.7 9.4996 3.7C9.49469 3.7 9.48978 3.7 9.48487 3.7C9.47996 3.7 9.47504 3.7 9.47013 3.7C9.46522 3.7 9.46031 3.7 9.45539 3.7C9.45048 3.7 9.44557 3.7 9.44065 3.7C9.43574 3.7 9.43083 3.7 9.42591 3.7C9.421 3.7 9.41608 3.7 9.41117 3.7C9.40625 3.7 9.40134 3.7 9.39642 3.7C9.39151 3.7 9.38659 3.7 9.38168 3.7C9.37676 3.7 9.37184 3.7 9.36693 3.7C9.36201 3.7 9.35709 3.7 9.35218 3.7C9.34726 3.7 9.34234 3.7 9.33742 3.7C9.33251 3.7 9.32759 3.7 9.32267 3.7C9.31775 3.7 9.31283 3.7 9.30791 3.7C9.30299 3.7 9.29807 3.7 9.29315 3.7C9.28823 3.7 9.28331 3.7 9.27839 3.7C9.27347 3.7 9.26855 3.7 9.26363 3.7C9.25871 3.7 9.25379 3.7 9.24887 3.7C9.24394 3.7 9.23902 3.7 9.2341 3.7C9.22918 3.7 9.22425 3.7 9.21933 3.7C9.21441 3.7 9.20948 3.7 9.20456 3.7C9.19963 3.7 9.19471 3.7 9.18978 3.7C9.18486 3.7 9.17993 3.7 9.17501 3.7C9.17008 3.7 9.16516 3.7 9.16023 3.7C9.1553 3.7 9.15037 3.7 9.14545 3.7C9.14052 3.7 9.13559 3.7 9.13066 3.7C9.12573 3.7 9.12081 3.7 9.11588 3.7C9.11095 3.7 9.10602 3.7 9.10109 3.7C9.09616 3.7 9.09123 3.7 9.0863 3.7C9.08136 3.7 9.07643 3.7 9.0715 3.7C9.06657 3.7 9.06164 3.7 9.0567 3.7C9.05177 3.7 9.04684 3.7 9.0419 3.7C9.03697 3.7 9.03203 3.7 9.0271 3.7C9.02217 3.7 9.01723 3.7 9.01229 3.7C9.00736 3.7 9.00242 3.7 8.99749 3.7C8.99255 3.7 8.98761 3.7 8.98267 3.7C8.97774 3.7 8.9728 3.7 8.96786 3.7C8.96292 3.7 8.95798 3.7 8.95304 3.7C8.9481 3.7 8.94316 3.7 8.93822 3.7C8.93328 3.7 8.92834 3.7 8.9234 3.7C8.91845 3.7 8.91351 3.7 8.90857 3.7C8.90363 3.7 8.89868 3.7 8.89374 3.7C8.88879 3.7 8.88385 3.7 8.8789 3.7C8.87396 3.7 8.86901 3.7 8.86407 3.7C8.85912 3.7 8.85417 3.7 8.84923 3.7C8.84428 3.7 8.83933 3.7 8.83438 3.7C8.82943 3.7 8.82448 3.7 8.81954 3.7C8.81459 3.7 8.80964 3.7 8.80468 3.7C8.79973 3.7 8.79478 3.7 8.78983 3.7C8.78488 3.7 8.77992 3.7 8.77497 3.7C8.77002 3.7 8.76506 3.7 8.76011 3.7C8.75516 3.7 8.7502 3.7 8.74524 3.7C8.74029 3.7 8.73533 3.7 8.73038 3.7C8.72542 3.7 8.72046 3.7 8.7155 3.7C8.71054 3.7 8.70559 3.7 8.70063 3.7C8.69567 3.7 8.69071 3.7 8.68575 3.7C8.68079 3.7 8.67582 3.7 8.67086 3.7C8.6659 3.7 8.66094 3.7 8.65597 3.7C8.65101 3.7 8.64605 3.7 8.64108 3.7C8.63612 3.7 8.63115 3.7 8.62618 3.7C8.62122 3.7 8.61625 3.7 8.61128 3.7C8.60632 3.7 8.60135 3.7 8.59638 3.7C8.59141 3.7 8.58644 3.7 8.58147 3.7C8.5765 3.7 8.57153 3.7 8.56656 3.7C8.56159 3.7 8.55661 3.7 8.55164 3.7C8.54667 3.7 8.54169 3.7 8.53672 3.7C8.53174 3.7 8.52677 3.7 8.52179 3.7C8.51682 3.7 8.51184 3.7 8.50686 3.7C8.50189 3.7 8.49691 3.7 8.49193 3.7C8.48695 3.7 8.48197 3.7 8.47699 3.7C8.47201 3.7 8.46703 3.7 8.46205 3.7C8.45707 3.7 8.45208 3.7 8.4471 3.7C8.44212 3.7 8.43713 3.7 8.43215 3.7C8.42716 3.7 8.42218 3.7 8.41719 3.7C8.4122 3.7 8.40722 3.7 8.40223 3.7C8.39724 3.7 8.39225 3.7 8.38726 3.7C8.38227 3.7 8.37728 3.7 8.37229 3.7C8.3673 3.7 8.36231 3.7 8.35731 3.7C8.35232 3.7 8.34733 3.7 8.34233 3.7C8.33734 3.7 8.33234 3.7 8.32735 3.7C8.32235 3.7 8.31735 3.7 8.31235 3.7C8.30736 3.7 8.30236 3.7 8.29736 3.7C8.29236 3.7 8.28736 3.7 8.28236 3.7C8.27736 3.7 8.27235 3.7 8.26735 3.7C8.26235 3.7 8.25734 3.7 8.25234 3.7C8.24734 3.7 8.24233 3.7 8.23732 3.7C8.23232 3.7 8.22731 3.7 8.2223 3.7C8.21729 3.7 8.21229 3.7 8.20728 3.7C8.20227 3.7 8.19726 3.7 8.19224 3.7C8.18723 3.7 8.18222 3.7 8.17721 3.7C8.17219 3.7 8.16718 3.7 8.16216 3.7C8.15715 3.7 8.15213 3.7 8.14712 3.7C8.1421 3.7 8.13708 3.7 8.13206 3.7C8.12704 3.7 8.12202 3.7 8.117 3.7C8.11198 3.7 8.10696 3.7 8.10194 3.7C8.09692 3.7 8.09189 3.7 8.08687 3.7C8.08184 3.7 8.07682 3.7 8.07179 3.7C8.06676 3.7 8.06174 3.7 8.05671 3.7C8.05168 3.7 8.04665 3.7 8.04162 3.7C8.03659 3.7 8.03156 3.7 8.02653 3.7C8.0215 3.7 8.01646 3.7 8.01143 3.7C8.0064 3.7 8.00136 3.7 7.99633 3.7C7.99129 3.7 7.98625 3.7 7.98121 3.7C7.97618 3.7 7.97114 3.7 7.9661 3.7C7.96106 3.7 7.95602 3.7 7.95097 3.7C7.94593 3.7 7.94089 3.7 7.93585 3.7C7.9308 3.7 7.92576 3.7 7.92071 3.7C7.91567 3.7 7.91062 3.7 7.90557 3.7C7.90052 3.7 7.89547 3.7 7.89042 3.7C7.88537 3.7 7.88032 3.7 7.87527 3.7C7.87022 3.7 7.86516 3.7 7.86011 3.7C7.85506 3.7 7.85 3.7 7.84494 3.7C7.83989 3.7 7.83483 3.7 7.82977 3.7C7.82471 3.7 7.81965 3.7 7.81459 3.7C7.80953 3.7 7.80447 3.7 7.79941 3.7C7.79435 3.7 7.78928 3.7 7.78422 3.7C7.77915 3.7 7.77409 3.7 7.76902 3.7C7.76395 3.7 7.75888 3.7 7.75381 3.7C7.74874 3.7 7.74367 3.7 7.7386 3.7C7.73353 3.7 7.72846 3.7 7.72338 3.7C7.71831 3.7 7.71324 3.7 7.70816 3.7C7.70308 3.7 7.69801 3.7 7.69293 3.7C7.68785 3.7 7.68277 3.7 7.67769 3.7C7.67261 3.7 7.66753 3.7 7.66245 3.7C7.65736 3.7 7.65228 3.7 7.64719 3.7C7.64211 3.7 7.63702 3.7 7.63194 3.7C7.62685 3.7 7.62176 3.7 7.61667 3.7C7.61158 3.7 7.60649 3.7 7.6014 3.7C7.5963 3.7 7.59121 3.7 7.58612 3.7C7.58102 3.7 7.57593 3.7 7.57083 3.7C7.56573 3.7 7.56064 3.7 7.55554 3.7C7.55044 3.7 7.54534 3.7 7.54024 3.7C7.53513 3.7 7.53003 3.7 7.52493 3.7C7.51982 3.7 7.51472 3.7 7.50961 3.7C7.50451 3.7 7.4994 3.7 7.49429 3.7C7.48918 3.7 7.48407 3.7 7.47896 3.7C7.47385 3.7 7.46873 3.7 7.46362 3.7C7.45851 3.7 7.45339 3.7 7.44828 3.7C7.44316 3.7 7.43804 3.7 7.43292 3.7C7.4278 3.7 7.42268 3.7 7.41756 3.7C7.41244 3.7 7.40732 3.7 7.4022 3.7C7.39707 3.7 7.39195 3.7 7.38682 3.7C7.38169 3.7 7.37657 3.7 7.37144 3.7C7.36631 3.7 7.36118 3.7 7.35605 3.7C7.35091 3.7 7.34578 3.7 7.34065 3.7C7.33551 3.7 7.33038 3.7 7.32524 3.7C7.32011 3.7 7.31497 3.7 7.30983 3.7C7.30469 3.7 7.29955 3.7 7.29441 3.7C7.28926 3.7 7.28412 3.7 7.27898 3.7C7.27383 3.7 7.26869 3.7 7.26354 3.7C7.25839 3.7 7.25324 3.7 7.24809 3.7C7.24294 3.7 7.23779 3.7 7.23264 3.7C7.22749 3.7 7.22233 3.7 7.21718 3.7C7.21202 3.7 7.20687 3.7 7.20171 3.7C7.19655 3.7 7.19139 3.7 7.18623 3.7C7.18107 3.7 7.17591 3.7 7.17074 3.7C7.16558 3.7 7.16041 3.7 7.15525 3.7C7.15008 3.7 7.14491 3.7 7.13974 3.7C7.13458 3.7 7.12941 3.7 7.12423 3.7C7.11906 3.7 7.11389 3.7 7.10871 3.7C7.10354 3.7 7.09836 3.7 7.09319 3.7C7.08801 3.7 7.08283 3.7 7.07765 3.7C7.07247 3.7 7.06729 3.7 7.0621 3.7C7.05692 3.7 7.05174 3.7 7.04655 3.7C7.04136 3.7 7.03618 3.7 7.03099 3.7C7.0258 3.7 7.02061 3.7 7.01542 3.7C7.01022 3.7 7.00503 3.7 6.99984 3.7C6.99464 3.7 6.98945 3.7 6.98425 3.7C6.97905 3.7 6.97385 3.7 6.96865 3.7C6.96345 3.7 6.95825 3.7 6.95304 3.7C6.94784 3.7 6.94264 3.7 6.93743 3.7C6.93222 3.7 6.92701 3.7 6.92181 3.7C6.9166 3.7 6.91138 3.7 6.90617 3.7C6.90096 3.7 6.89575 3.7 6.89053 3.7C6.88531 3.7 6.8801 3.7 6.87488 3.7C6.86966 3.7 6.86444 3.7 6.85922 3.7C6.854 3.7 6.84877 3.7 6.84355 3.7C6.83833 3.7 6.8331 3.7 6.82787 3.7C6.82264 3.7 6.81741 3.7 6.81218 3.7C6.80695 3.7 6.80172 3.7 6.79649 3.7C6.79125 3.7 6.78602 3.7 6.78078 3.7C6.77554 3.7 6.7703 3.7 6.76506 3.7C6.75982 3.7 6.75458 3.7 6.74934 3.7C6.7441 3.7 6.73885 3.7 6.73361 3.7C6.72836 3.7 6.72311 3.7 6.71786 3.7C6.71261 3.7 6.70736 3.7 6.70211 3.7C6.69685 3.7 6.6916 3.7 6.68634 3.7C6.68109 3.7 6.67583 3.7 6.67057 3.7C6.66531 3.7 6.66005 3.7 6.65479 3.7C6.64953 3.7 6.64426 3.7 6.639 3.7C6.63373 3.7 6.62846 3.7 6.6232 3.7C6.61793 3.7 6.61266 3.7 6.60738 3.7C6.60211 3.7 6.59684 3.7 6.59156 3.7C6.58629 3.7 6.58101 3.7 6.57573 3.7C6.57045 3.7 6.56517 3.7 6.55989 3.7C6.55461 3.7 6.54932 3.7 6.54404 3.7C6.53875 3.7 6.53347 3.7 6.52818 3.7C6.52289 3.7 6.5176 3.7 6.51231 3.7C6.50701 3.7 6.50172 3.7 6.49642 3.7C6.49113 3.7 6.48583 3.7 6.48053 3.7C6.47523 3.7 6.46993 3.7 6.46463 3.7C6.45933 3.7 6.45402 3.7 6.44872 3.7C6.44341 3.7 6.4381 3.7 6.4328 3.7C6.42749 3.7 6.42218 3.7 6.41686 3.7C6.41155 3.7 6.40624 3.7 6.40092 3.7C6.3956 3.7 6.39029 3.7 6.38497 3.7C6.37965 3.7 6.37433 3.7 6.369 3.7C6.36368 3.7 6.35835 3.7 6.35303 3.7C6.3477 3.7 6.34237 3.7 6.33704 3.7C6.33171 3.7 6.32638 3.7 6.32105 3.7C6.31571 3.7 6.31038 3.7 6.30504 3.7C6.2997 3.7 6.29437 3.7 6.28902 3.7C6.28368 3.7 6.27834 3.7 6.273 3.7C6.26765 3.7 6.26231 3.7 6.25696 3.7C6.25161 3.7 6.24626 3.7 6.24091 3.7C6.23556 3.7 6.2302 3.7 6.22485 3.7C6.21949 3.7 6.21414 3.7 6.20878 3.7C6.20342 3.7 6.19806 3.7 6.1927 3.7C6.18733 3.7 6.18197 3.7 6.1766 3.7C6.17124 3.7 6.16587 3.7 6.1605 3.7C6.15513 3.7 6.14976 3.7 6.14438 3.7C6.13901 3.7 6.13364 3.7 6.12826 3.7C6.12288 3.7 6.1175 3.7 6.11212 3.7V5.1ZM17 7.74444H3V9.14444H17V7.74444ZM13.5 3V5.8H14.9V3H13.5ZM5.1 3V5.8H6.5V3H5.1ZM6.11111 16.3C5.35803 16.3 4.86363 16.2985 4.49752 16.2493C4.15154 16.2028 4.02665 16.1255 3.95059 16.0494L2.96064 17.0394C3.34018 17.4189 3.80975 17.5694 4.31097 17.6368C4.79205 17.7015 5.3976 17.7 6.11111 17.7V16.3ZM2.3 13.8889C2.3 14.6024 2.29851 15.2079 2.36319 15.689C2.43058 16.1903 2.58109 16.6598 2.96064 17.0394L3.95059 16.0494C3.87452 15.9733 3.79722 15.8485 3.75071 15.5025C3.70149 15.1364 3.7 14.642 3.7 13.8889H2.3ZM16.3 13.8889C16.3 14.642 16.2985 15.1364 16.2493 15.5025C16.2028 15.8485 16.1255 15.9733 16.0494 16.0494L17.0394 17.0394C17.4189 16.6598 17.5694 16.1903 17.6368 15.689C17.7015 15.2079 17.7 14.6024 17.7 13.8889H16.3ZM13.8889 17.7C14.6024 17.7 15.2079 17.7015 15.689 17.6368C16.1903 17.5694 16.6598 17.4189 17.0394 17.0394L16.0494 16.0494C15.9733 16.1255 15.8485 16.2028 15.5025 16.2493C15.1364 16.2985 14.642 16.3 13.8889 16.3V17.7ZM17.7 7.51111C17.7 6.7976 17.7015 6.19205 17.6368 5.71097C17.5694 5.20975 17.4189 4.74018 17.0394 4.36064L16.0494 5.35059C16.1255 5.42665 16.2028 5.55154 16.2493 5.89752C16.2985 6.26363 16.3 6.75803 16.3 7.51111H17.7ZM13.8879 5.1C14.6413 5.1 15.136 5.10149 15.5023 5.15071C15.8485 5.19724 15.9734 5.27457 16.0494 5.35059L17.0394 4.36064C16.6598 3.98105 16.1901 3.83056 15.6887 3.76319C15.2075 3.69851 14.6017 3.7 13.8879 3.7V5.1ZM3.7 7.51111C3.7 6.75802 3.70149 6.26363 3.75071 5.89752C3.79722 5.55154 3.87452 5.42665 3.95059 5.35059L2.96064 4.36064C2.58109 4.74018 2.43058 5.20975 2.36319 5.71097C2.29851 6.19205 2.3 6.7976 2.3 7.51111H3.7ZM6.11212 3.7C5.39827 3.7 4.79249 3.69851 4.31126 3.76319C3.80994 3.83056 3.34023 3.98105 2.96064 4.36064L3.95059 5.35059C4.02661 5.27457 4.15152 5.19724 4.49773 5.15071C4.86404 5.10149 5.35871 5.1 6.11212 5.1V3.7Z" fill="#5D6883"/>
<path d="M7.27821 14.2775C7.27821 14.7071 6.92999 15.0553 6.50043 15.0553C6.07088 15.0553 5.72266 14.7071 5.72266 14.2775C5.72266 13.848 6.07088 13.4998 6.50043 13.4998C6.92999 13.4998 7.27821 13.848 7.27821 14.2775Z" fill="#5D6883"/>
<path d="M10.7782 14.2775C10.7782 14.7071 10.43 15.0553 10.0004 15.0553C9.57088 15.0553 9.22266 14.7071 9.22266 14.2775C9.22266 13.848 9.57088 13.4998 10.0004 13.4998C10.43 13.4998 10.7782 13.848 10.7782 14.2775Z" fill="#5D6883"/>
<path d="M14.2782 14.2775C14.2782 14.7071 13.93 15.0553 13.5004 15.0553C13.0709 15.0553 12.7227 14.7071 12.7227 14.2775C12.7227 13.848 13.0709 13.4998 13.5004 13.4998C13.93 13.4998 14.2782 13.848 14.2782 14.2775Z" fill="#5D6883"/>
<path d="M14.2782 14.2775C14.2782 14.7071 13.93 15.0553 13.5004 15.0553C13.0709 15.0553 12.7227 14.7071 12.7227 14.2775C12.7227 13.848 13.0709 13.4998 13.5004 13.4998C13.93 13.4998 14.2782 13.848 14.2782 14.2775Z" fill="#5D6883"/>
<path d="M7.27821 11.1664C7.27821 11.596 6.92999 11.9442 6.50043 11.9442C6.07088 11.9442 5.72266 11.596 5.72266 11.1664C5.72266 10.7369 6.07088 10.3887 6.50043 10.3887C6.92999 10.3887 7.27821 10.7369 7.27821 11.1664Z" fill="#5D6883"/>
<path d="M10.7782 11.1664C10.7782 11.596 10.43 11.9442 10.0004 11.9442C9.57088 11.9442 9.22266 11.596 9.22266 11.1664C9.22266 10.7369 9.57088 10.3887 10.0004 10.3887C10.43 10.3887 10.7782 10.7369 10.7782 11.1664Z" fill="#5D6883"/>
<path d="M14.2782 11.1664C14.2782 11.596 13.93 11.9442 13.5004 11.9442C13.0709 11.9442 12.7227 11.596 12.7227 11.1664C12.7227 10.7369 13.0709 10.3887 13.5004 10.3887C13.93 10.3887 14.2782 10.7369 14.2782 11.1664Z" fill="#5D6883"/>
<path d="M14.2782 11.1664C14.2782 11.596 13.93 11.9442 13.5004 11.9442C13.0709 11.9442 12.7227 11.596 12.7227 11.1664C12.7227 10.7369 13.0709 10.3887 13.5004 10.3887C13.93 10.3887 14.2782 10.7369 14.2782 11.1664Z" fill="#5D6883"/>
</g>
<defs>
<clipPath id="clip0_379_82088">
<rect width="20" height="20" fill="white"/>
</clipPath>
</defs>
</svg>
