<?xml version="1.0" encoding="utf-8"?>
<!-- Generator: Adobe Illustrator 28.0.0, SVG Export Plug-In . SVG Version: 6.00 Build 0)  -->
<svg version="1.1" id="Layer_1" xmlns="http://www.w3.org/2000/svg" xmlns:xlink="http://www.w3.org/1999/xlink" x="0px" y="0px"
	 viewBox="0 0 231 68" style="enable-background:new 0 0 231 68;" xml:space="preserve">
<style type="text/css">
	.st0{fill:#FFFFFF;}
	.st1{fill-rule:evenodd;clip-rule:evenodd;fill:#FFFFFF;}
</style>
<path class="st0" d="M135,0H95c-2.2,0-4,1.8-4,4v24c0,11,9,20,20,20h24c2.2,0,4-1.8,4-4V4C139,1.8,137.2,0,135,0z M105.7,39.1h-6.4
	V8.4h6.4V39.1z M118.6,39.1h-6.4V27h6.4V39.1z M118.6,20.5h-6.4V8.4h6.4V20.5z M131.4,39.1H125V8.4h6.4V39.1z"/>
<path class="st1" d="M2.5,60.5h6.4v-4.8H11v12.1H8.9v-5.5H2.5v5.5H0.3V55.7h2.1V60.5z M12.6,61.9c0-1.8,0.5-3.4,1.8-4.7
	c1.3-1.2,2.9-1.7,4.7-1.7c1.2,0,2.3,0.2,3.4,0.8c1,0.5,1.8,1.3,2.3,2.2c0.6,1,0.8,2.1,0.8,3.2c0,1.1-0.3,2.3-0.8,3.3
	c-0.6,1-1.4,1.7-2.4,2.2c-1,0.5-2.1,0.7-3.3,0.7c-1.1,0-2.4-0.2-3.4-0.8c-1-0.5-1.8-1.3-2.3-2.2C12.9,63.9,12.6,62.9,12.6,61.9
	L12.6,61.9z M30.4,57.4h-4.3v-1.7h10.8v1.7h-4.3v10.3h-2.1L30.4,57.4L30.4,57.4z M40.4,57.4v3.2h7.3v1.7h-7.3V66h8.1v1.7H38.3V55.7
	h9.9v1.7H40.4z M52.6,66H59v1.7h-8.6V55.7h2.1V66z M68.2,64.2h-5.3l-1.4,3.5h-2.2l5.2-12.1h2.1l5.5,12.1h-2.4L68.2,64.2L68.2,64.2z
	 M75.1,62.9v4.8H73V55.7h5.2c0.7,0,1.4,0,2,0.1c0.6,0.1,1.2,0.3,1.7,0.6c0.5,0.3,0.8,0.7,1.1,1.2c0.3,0.5,0.4,1.1,0.4,1.7
	c0,1-0.4,1.9-1.1,2.6c-1,0.9-2.7,1.1-4,1.1H75.1L75.1,62.9z M91.4,64.2h-5.3l-1.4,3.5h-2.2l5.2-12.1h2.1l5.5,12.1h-2.4L91.4,64.2z
	 M103.9,62.3c0.2,0.1,0.4,0.2,0.6,0.4c0.6,0.5,1.1,1,1.5,1.6l2.5,3.5h-2.6l-1.8-2.5c-0.4-0.5-0.8-1.1-1.2-1.6
	c-0.2-0.3-0.5-0.6-0.8-0.7c-0.2-0.1-0.5-0.2-0.7-0.3c-0.3-0.1-0.6-0.1-0.9-0.1h-1.8v5.2h-2.1V55.7h6c0.9,0,1.9,0,2.7,0.3
	c0.6,0.2,1.2,0.6,1.5,1.2c0.4,0.6,0.6,1.2,0.6,1.9c0,0.9-0.3,1.6-1,2.2C105.5,61.8,104.7,62.1,103.9,62.3L103.9,62.3z M112.5,57.4
	h-4.3v-1.7H119v1.7h-4.3v10.3h-2.1L112.5,57.4L112.5,57.4z M126.9,65.3c0.2-0.5,0.4-0.9,0.5-1.4l3.2-8.2h2.6v12.1h-2v-9l-3.6,9h-1.8
	l-3.5-9.2v9.2h-2V55.7h2.9l3.2,8.4C126.6,64.5,126.8,64.9,126.9,65.3z M137.9,57.4v3.2h7.3v1.7h-7.3V66h8.1v1.7h-10.2V55.7h9.9v1.7
	H137.9z M156.7,64.5v-8.8h2v12.1h-2.1l-6.6-8.8v8.8h-2V55.7h2.1L156.7,64.5z M164.6,57.4h-4.3v-1.7h10.8v1.7h-4.3v10.3h-2.1
	L164.6,57.4L164.6,57.4z M171.9,63.6l2-0.2l0,0.2c0.1,0.5,0.2,1,0.5,1.4c0.3,0.4,0.8,0.7,1.2,0.9c0.6,0.2,1.3,0.3,2,0.3
	c0.6,0,1.2-0.1,1.7-0.3c0.4-0.1,0.8-0.3,1.1-0.7c0.2-0.3,0.3-0.6,0.3-0.9c0-0.3-0.1-0.6-0.3-0.8c-0.3-0.3-0.7-0.5-1.1-0.6
	c-0.7-0.2-1.6-0.4-2.3-0.6c-0.8-0.2-1.8-0.4-2.6-0.7c-0.6-0.3-1.1-0.6-1.5-1.1c-0.3-0.5-0.5-1-0.5-1.6c0-0.7,0.2-1.2,0.6-1.8
	c0.4-0.6,1-1,1.7-1.2c0.8-0.3,1.6-0.4,2.5-0.4c0.9,0,1.8,0.1,2.6,0.4c0.7,0.3,1.3,0.7,1.8,1.3c0.4,0.6,0.6,1.2,0.7,1.9v0.2l-2,0.1
	v-0.2c-0.1-0.6-0.3-1.2-0.9-1.5c-0.6-0.4-1.5-0.5-2.2-0.5c-0.7,0-1.6,0.1-2.2,0.5c-0.4,0.3-0.6,0.6-0.6,1.1c0,0.4,0.2,0.7,0.4,0.9
	c0.5,0.4,2,0.7,2.5,0.8c0.9,0.2,2.1,0.4,2.9,0.8c0.7,0.3,1.3,0.7,1.8,1.2c0.4,0.5,0.6,1.1,0.6,1.8c0,0.7-0.2,1.3-0.6,1.9
	c-0.5,0.6-1.1,1.1-1.8,1.3c-0.8,0.3-1.7,0.5-2.6,0.5c-1,0-2.1-0.1-3-0.5c-0.8-0.3-1.5-0.8-2-1.4c-0.5-0.7-0.7-1.4-0.8-2.2
	L171.9,63.6L171.9,63.6z M185,67.7v-2h2.2v2H185z M199.3,63.2l2.1,0.5l-0.1,0.2c-0.3,1.2-1,2.3-2,3c-1.1,0.7-2.3,1-3.6,1
	c-1.2,0-2.5-0.2-3.5-0.8c-0.9-0.5-1.6-1.3-2.1-2.3c-0.5-1-0.7-2.1-0.7-3.2c0-1.1,0.2-2.3,0.8-3.3c0.5-0.9,1.3-1.7,2.3-2.1
	c1-0.5,2.1-0.7,3.3-0.7c1.2,0,2.4,0.2,3.4,0.9c1,0.6,1.6,1.5,1.9,2.6l0.1,0.2l-2.1,0.4l-0.1-0.1c-0.2-0.7-0.6-1.3-1.3-1.8
	c-0.6-0.4-1.4-0.6-2.1-0.6c-0.8,0-1.7,0.2-2.4,0.6c-0.6,0.4-1.1,0.9-1.4,1.6c-0.3,0.7-0.4,1.4-0.4,2.2c0,0.9,0.1,1.7,0.5,2.5
	c0.3,0.7,0.8,1.2,1.4,1.6c0.7,0.4,1.4,0.5,2.1,0.5c0.9,0,1.7-0.2,2.4-0.7c0.7-0.5,1.1-1.3,1.3-2.1L199.3,63.2L199.3,63.2z
	 M202.6,61.8c0-1.8,0.5-3.4,1.8-4.7c1.3-1.2,2.9-1.7,4.7-1.7c1.2,0,2.3,0.2,3.4,0.8c1,0.5,1.8,1.3,2.3,2.2c0.6,1,0.8,2.1,0.8,3.2
	c0,1.1-0.3,2.3-0.8,3.3c-0.6,1-1.4,1.7-2.4,2.2c-1,0.5-2.1,0.7-3.3,0.7s-2.3-0.2-3.4-0.8c-1-0.5-1.8-1.3-2.3-2.2
	C202.9,63.9,202.6,62.9,202.6,61.8L202.6,61.8z M224,65.3c0.2-0.5,0.4-0.9,0.5-1.4l3.2-8.2h2.6v12.1h-2v-9l-3.5,9h-1.8l-3.5-9.2v9.2
	h-2V55.7h2.9l3.2,8.4C223.7,64.5,223.8,64.9,224,65.3L224,65.3z M14.8,61.9c0,1.2,0.3,2.3,1.2,3.2c0.9,0.8,1.9,1.2,3.1,1.2
	c1.2,0,2.2-0.3,3.1-1.2c0.9-0.9,1.2-2.1,1.2-3.3c0-0.8-0.1-1.7-0.5-2.4c-0.3-0.7-0.9-1.2-1.5-1.6c-0.7-0.4-1.5-0.6-2.3-0.6
	c-1.2,0-2.2,0.3-3.1,1.1C15,59.1,14.8,60.6,14.8,61.9z M63.6,62.6h4l-1.3-3c-0.3-0.6-0.5-1.3-0.8-1.9c-0.2,0.6-0.4,1.1-0.6,1.7
	L63.6,62.6L63.6,62.6z M75.1,61.2h3.2c0.7,0,1.7-0.1,2.3-0.5c0.5-0.4,0.6-0.9,0.6-1.4c0-0.4-0.1-0.8-0.4-1.1c-0.3-0.3-0.6-0.5-1-0.6
	c-0.4-0.1-1.1-0.1-1.6-0.1h-3.2V61.2z M86.7,62.6h4l-1.3-3c-0.3-0.6-0.5-1.3-0.8-1.9c-0.2,0.6-0.4,1.1-0.6,1.7L86.7,62.6L86.7,62.6z
	 M98.4,60.8h3.6c0.6,0,1.3,0,1.8-0.2c0.4-0.1,0.7-0.3,0.9-0.6c0.2-0.3,0.3-0.6,0.3-0.9c0-0.5-0.2-0.9-0.6-1.2
	c-0.5-0.4-1.4-0.5-2-0.5h-4L98.4,60.8L98.4,60.8z M204.8,61.9c0,1.2,0.3,2.3,1.2,3.2c0.9,0.8,1.9,1.2,3.1,1.2c1.2,0,2.2-0.3,3.1-1.2
	c0.9-0.9,1.2-2.1,1.2-3.3c0-0.8-0.1-1.7-0.5-2.4c-0.3-0.7-0.9-1.2-1.5-1.6c-0.7-0.4-1.5-0.6-2.3-0.6c-1.2,0-2.2,0.3-3.1,1.1
	C205,59.1,204.8,60.6,204.8,61.9z"/>
</svg>
